<svg viewBox="0 0 1024 1024" fill="none" xmlns="http://www.w3.org/2000/svg">
<path d="M541.893 656.256C516.281 658.842 492.102 652.808 482.496 644.844C479.552 642.139 477.566 638.552 476.841 634.629C475.662 629.122 477.566 623.408 481.823 619.707C490.71 613.9 501.579 611.949 511.935 614.308C520.797 615.454 529.72 616.022 538.659 616.017C629.1 616.017 687.514 561.351 687.514 476.728C687.514 392.105 629.048 337.404 538.654 337.404C448.26 337.404 389.795 392.09 389.795 476.718C389.795 523.858 407.926 561.692 439.632 585.971C424.356 595.143 412.613 609.183 406.307 625.823C401.02 644.776 407.098 665.077 421.94 678.032L425.659 681.635L421.004 683.973C386.396 701.331 369.697 725.585 373.955 752.301C374.394 754.959 375.036 757.576 375.884 760.131C391.346 813.403 468.932 835.633 545.457 833.249C589.247 831.881 710.498 813.052 711.76 737.751C713.472 634.577 595.382 651.001 548.985 655.605L541.893 656.256ZM538.654 404.57C576.221 404.57 599.551 432.231 599.551 476.744C599.551 521.257 576.221 548.917 538.654 548.917C501.088 548.917 477.731 521.257 477.731 476.744C477.731 432.231 501.062 404.57 538.654 404.57ZM482.185 711.458C483.991 711.215 486.406 710.854 489.293 710.415C540.015 702.936 609.696 695.447 629.219 717.445C634.506 723.546 636.12 732.006 633.44 739.614C627.786 760.183 583.308 769.246 541.561 769.246C530.538 769.267 519.519 768.596 508.578 767.228C475.052 762.872 456.506 752.564 456.377 738.2C456.025 723.799 474.157 712.516 482.221 711.427" fill="#262AFF"/>
<path d="M622.378 277.009C499.938 232.395 364.545 295.355 319.971 417.382C311.891 439.48 307.155 462.69 305.902 486.317C303.394 536.351 316.488 585.968 343.79 628.08C354.933 645.314 349.919 668.246 332.646 679.365C315.652 690.206 293.226 685.619 281.804 669.08C184.437 523.843 223.44 327.321 369.002 230.032C395.607 212.243 424.72 198.623 455.364 189.589C519.857 170.548 588.669 172.076 652.326 194.036H652.465C675.309 202.514 687.01 227.809 678.652 250.602C670.434 272.839 645.918 284.653 623.353 277.148L622.517 276.87" fill="url(#paint0_linear_257_67)"/>
<path d="M622.378 277.009C499.938 232.395 364.545 295.355 319.971 417.382C311.891 439.48 307.155 462.69 305.902 486.317C303.394 536.351 316.488 585.968 343.79 628.08C354.933 645.314 349.919 668.246 332.646 679.365C315.652 690.206 293.226 685.619 281.804 669.08C184.437 523.843 223.44 327.321 369.002 230.032C395.607 212.243 424.72 198.623 455.364 189.589C519.857 170.548 588.669 172.076 652.326 194.036H652.465C675.309 202.514 687.01 227.809 678.652 250.602C670.434 272.839 645.918 284.653 623.353 277.148L622.517 276.87" fill="url(#paint1_linear_257_67)"/>
<path d="M622.378 277.009C499.938 232.395 364.545 295.355 319.971 417.382C311.891 439.48 307.155 462.69 305.902 486.317C303.394 536.351 316.488 585.968 343.79 628.08C354.933 645.314 349.919 668.246 332.646 679.365C315.652 690.206 293.226 685.619 281.804 669.08C184.437 523.843 223.44 327.321 369.002 230.032C395.607 212.243 424.72 198.623 455.364 189.589C519.857 170.548 588.669 172.076 652.326 194.036H652.465C675.309 202.514 687.01 227.809 678.652 250.602C670.434 272.839 645.918 284.653 623.353 277.148L622.517 276.87" fill="url(#paint2_linear_257_67)"/>
<path d="M701.914 243.931C701.914 270.754 680.045 292.575 653.162 292.575C626.278 292.575 604.409 270.754 604.409 243.931C604.409 217.107 626.278 195.286 653.162 195.286C680.045 195.286 701.914 217.107 701.914 243.931Z" fill="#262AFF"/>
<defs>
<linearGradient id="paint0_linear_257_67" x1="390.757" y1="180.787" x2="623.823" y2="237.253" gradientUnits="userSpaceOnUse">
<stop stop-color="#3FA3DE"/>
<stop offset="1" stop-color="#3FA3DE" stop-opacity="0"/>
</linearGradient>
<linearGradient id="paint1_linear_257_67" x1="323.133" y1="609.3" x2="508.291" y2="374.518" gradientUnits="userSpaceOnUse">
<stop stop-color="#262AFF"/>
<stop offset="1" stop-color="#262AFF" stop-opacity="0"/>
</linearGradient>
<linearGradient id="paint2_linear_257_67" x1="329.658" y1="400.962" x2="503.801" y2="279.264" gradientUnits="userSpaceOnUse">
<stop stop-color="#262AFF" stop-opacity="0.2"/>
<stop offset="1" stop-color="#262AFF" stop-opacity="0"/>
</linearGradient>
</defs>
</svg>
